{
    "asset": {
        "version": "2.0",
        "generator": "Open Asset Import Library (assimp v5.0.5eb040c7)"
    },
    "accessors": [
        {
            "bufferView": 0,
            "byteOffset": 0,
            "componentType": 5126,
            "count": 6866,
            "type": "VEC3",
            "max": [
                0.05497802048921585,
                0.10406109690666199,
                0.12088756263256073
            ],
            "min": [
                -0.05402015149593353,
                -3.24855705476776e-18,
                -0.08043186366558075
            ]
        },
        {
            "bufferView": 1,
            "byteOffset": 0,
            "componentType": 5126,
            "count": 6866,
            "type": "VEC3",
            "max": [
                1.0,
                1.0,
                1.0
            ],
            "min": [
                -1.0,
                -1.0,
                -1.0
            ]
        },
        {
            "bufferView": 2,
            "byteOffset": 0,
            "componentType": 5126,
            "count": 6866,
            "type": "VEC2",
            "max": [
                0.9929625988006592,
                0.9917991161346436
            ],
            "min": [
                0.006964623928070068,
                0.00332486629486084
            ]
        },
        {
            "bufferView": 3,
            "byteOffset": 0,
            "componentType": 5125,
            "count": 29979,
            "type": "SCALAR",
            "max": [
                6865
            ],
            "min": [
                0
            ]
        }
    ],
    "buffers": [
        {
            "byteLength": 339628,
            "uri": "result.bin"
        }
    ],
    "bufferViews": [
        {
            "buffer": 0,
            "byteOffset": 0,
            "byteLength": 82392,
            "target": 34962
        },
        {
            "buffer": 0,
            "byteOffset": 82392,
            "byteLength": 82392,
            "target": 34962
        },
        {
            "buffer": 0,
            "byteOffset": 164784,
            "byteLength": 54928,
            "target": 34962
        },
        {
            "buffer": 0,
            "byteOffset": 219712,
            "byteLength": 119916,
            "target": 34963
        }
    ],
    "materials": [
        {
            "name": "DefaultMaterial",
            "pbrMetallicRoughness": {
                "baseColorFactor": [
                    0.6000000238418579,
                    0.6000000238418579,
                    0.6000000238418579,
                    1.0
                ],
                "metallicFactor": 0.0
            }
        },
        {
            "name": "$Material_0",
            "pbrMetallicRoughness": {
                "baseColorFactor": [
                    0.6000000238418579,
                    0.6000000238418579,
                    0.6000000238418579,
                    1.0
                ],
                "metallicFactor": 0.0
            }
        }
    ],
    "meshes": [
        {
            "name": "meshes_0",
            "primitives": [
                {
                    "mode": 4,
                    "material": 1,
                    "indices": 3,
                    "attributes": {
                        "POSITION": 0,
                        "NORMAL": 1,
                        "TEXCOORD_0": 2
                    }
                }
            ]
        }
    ],
    "nodes": [
        {
            "name": "input.obj",
            "children": [
                1
            ]
        },
        {
            "name": "meshes_0",
            "mesh": 0
        }
    ],
    "scenes": [
        {
            "nodes": [
                0
            ]
        }
    ],
    "scene": 0
}